<?xml version="1.0" standalone="no"?>
<!DOCTYPE svg PUBLIC "-//W3C//DTD SVG 20010904//EN"
 "http://www.w3.org/TR/2001/REC-SVG-20010904/DTD/svg10.dtd">
<svg version="1.0" xmlns="http://www.w3.org/2000/svg"
 width="1111.000000pt" height="1111.000000pt" viewBox="0 0 1111.000000 1111.000000"
 preserveAspectRatio="xMidYMid meet">

<g transform="translate(0.000000,1111.000000) scale(0.100000,-0.100000)"
fill="#000000" stroke="none">
<path d="M0 5555 l0 -5555 5555 0 5555 0 0 5555 0 5555 -5555 0 -5555 0 0
-5555z m5619 3217 c37 -20 71 -73 71 -110 0 -59 -63 -132 -112 -132 -16 0 -18
-12 -18 -110 l0 -110 143 0 c124 0 146 3 174 20 18 11 35 31 39 45 5 19 12 25
35 25 36 0 39 -27 9 -76 -38 -60 -86 -74 -252 -74 l-147 0 -3 -154 c-3 -174
-10 -192 -81 -231 -35 -19 -37 -22 -37 -73 0 -43 -5 -58 -25 -77 -29 -30 -49
-31 -75 -5 -15 15 -20 33 -20 78 0 55 -1 58 -37 77 -71 39 -78 57 -81 231 l-3
154 -326 0 c-312 0 -327 -1 -359 -21 -68 -42 -64 16 -64 -834 l0 -771 -72 -70
c-118 -113 -125 -119 -142 -105 -8 6 37 -145 100 -336 166 -508 160 -487 142
-527 -32 -66 -32 -66 -557 -66 -512 0 -516 0 -559 55 -12 15 -22 38 -22 50 0
12 79 248 175 524 l175 502 0 119 0 120 -26 0 c-28 0 -65 16 -76 34 -14 21 -8
66 12 86 19 19 33 20 320 20 l301 0 24 -25 c45 -44 22 -100 -46 -111 l-39 -7
0 -114 c0 -96 4 -129 26 -199 15 -46 29 -84 33 -84 3 0 43 37 89 83 l82 82 2
772 3 771 25 28 c14 14 43 40 64 55 l39 29 339 0 338 0 0 110 c0 98 -2 110
-17 110 -33 0 -84 40 -100 77 -17 42 -12 92 12 130 31 46 64 52 285 53 180 0
209 -2 239 -18z m1828 -38 c15 -11 38 -36 51 -54 l22 -33 0 -1298 0 -1299 66
0 c97 0 141 -16 200 -75 99 -98 97 -243 -5 -339 l-31 -30 0 -207 0 -207 76
-41 c311 -168 489 -480 471 -826 -20 -385 -274 -698 -654 -807 -112 -32 -334
-32 -446 0 -246 70 -432 217 -551 434 -155 282 -138 640 45 909 85 126 201
230 331 295 l68 34 0 208 0 208 -31 30 c-42 39 -79 119 -79 170 0 62 26 124
72 171 60 61 104 73 270 73 l138 0 0 1294 0 1293 -25 27 -24 26 -686 0 -686 0
-24 -25 c-24 -23 -25 -30 -25 -140 l0 -115 -35 0 -35 0 0 88 c1 126 12 168 53
209 19 19 50 39 68 43 19 5 336 8 706 7 664 -2 672 -2 700 -23z m2594 -170
c17 -10 41 -32 53 -47 l21 -28 0 -972 c0 -816 -2 -980 -14 -1022 -13 -43 -49
-86 -274 -335 -143 -157 -294 -319 -337 -360 -55 -55 -86 -95 -113 -149 l-37
-74 0 -253 0 -254 -30 0 -30 0 0 263 0 263 35 73 c28 58 59 97 153 195 64 66
216 230 337 364 188 207 222 250 237 295 15 47 17 138 17 995 l1 944 -29 29
-29 29 -532 0 c-345 0 -538 -4 -551 -10 -42 -23 -49 -58 -49 -255 0 -168 2
-186 18 -191 83 -27 131 -64 165 -128 22 -41 22 -43 22 -621 0 -577 0 -580
-22 -621 -29 -55 -93 -111 -142 -124 l-41 -11 0 -523 0 -523 -22 -33 c-13 -18
-36 -43 -51 -54 -28 -21 -39 -21 -533 -24 l-504 -3 0 31 0 30 473 0 c294 0
486 4 509 10 71 20 68 -4 68 572 0 473 -1 518 -16 518 -39 0 -98 26 -139 62
-78 69 -76 46 -73 709 l3 585 28 43 c33 50 102 96 157 105 l40 6 0 192 c0 172
2 196 20 232 41 82 31 80 420 87 190 3 438 5 552 4 182 -2 210 -4 239 -21z
m-6138 -674 c39 -44 38 -110 -2 -150 -78 -78 -201 -32 -201 75 0 110 128 157
203 75z m319 -186 c47 -24 73 -72 73 -136 0 -86 -53 -146 -137 -155 -90 -10
-170 61 -170 151 0 125 120 197 234 140z m-353 -193 c43 -22 97 -80 112 -120
14 -35 13 -119 -1 -155 -47 -126 -199 -180 -314 -112 -151 88 -144 303 13 386
49 26 140 26 190 1z m-1918 -1647 c34 -33 44 -73 29 -119 -17 -50 -53 -75
-111 -75 -39 0 -53 5 -77 30 -54 54 -46 135 18 178 45 31 100 25 141 -14z
m3898 -260 c43 -36 44 -93 2 -135 -24 -24 -38 -29 -75 -29 l-46 0 0 -165 0
-166 235 -722 c209 -642 234 -727 225 -756 -14 -51 -36 -79 -80 -101 -38 -19
-57 -20 -717 -20 -636 0 -680 2 -718 19 -48 21 -91 69 -100 110 -5 23 49 188
244 749 l251 719 0 167 0 166 -51 0 c-65 0 -109 38 -109 95 0 27 8 44 29 66
l29 29 425 0 425 0 31 -26z m-2988 -107 c75 -50 86 -142 24 -204 -42 -42 -92
-51 -142 -27 -74 37 -102 114 -65 183 36 67 121 90 183 48z m-1166 -111 c76
-32 76 -130 -1 -162 -29 -12 -39 -12 -68 0 -75 31 -77 129 -3 161 40 18 32 17
72 1z m7945 -344 c47 -38 16 -112 -47 -112 l-33 0 0 -126 0 -126 166 -510
c113 -347 163 -516 158 -531 -9 -32 -35 -58 -71 -73 -47 -20 -949 -20 -996 0
-45 19 -78 58 -78 92 -1 16 79 255 175 532 l176 503 0 120 0 119 -37 0 c-44 0
-56 6 -72 37 -16 31 -14 41 14 68 l24 25 299 0 c274 0 302 -2 322 -18z m-8350
-97 c0 -38 -3 -45 -20 -45 -19 0 -20 -7 -20 -130 l0 -130 220 0 220 0 0 135
c0 128 -1 135 -20 135 -17 0 -20 7 -20 40 l0 40 205 0 205 0 0 -40 c0 -33 -3
-40 -20 -40 -19 0 -20 -7 -20 -135 l0 -135 255 0 255 0 0 130 0 130 -25 0
c-23 0 -25 4 -25 45 l0 45 195 0 195 0 0 -44 c0 -39 -3 -45 -22 -48 -22 -3
-23 -6 -23 -128 l0 -125 110 -5 110 -5 0 -580 0 -580 -22 -3 -23 -3 -2 558 -3
558 -85 0 -85 0 -3 -97 c-4 -130 -22 -128 -22 2 l0 100 -125 0 -125 0 0 -100
c0 -60 -4 -100 -10 -100 -6 0 -10 40 -10 100 l0 100 -80 0 -80 0 0 -547 c0
-302 -4 -554 -9 -561 -5 -8 -17 -12 -27 -10 -18 3 -19 24 -22 561 l-2 557
-139 0 c-114 0 -140 3 -145 15 -6 17 -36 21 -36 5 0 -6 -52 -10 -135 -10 -83
0 -135 4 -135 10 0 6 -7 10 -15 10 -8 0 -15 -7 -15 -15 0 -13 -23 -15 -150
-15 l-150 0 -2 -557 c-3 -550 -3 -558 -23 -558 -20 0 -20 8 -23 558 l-2 557
-45 0 -45 0 0 -100 c0 -82 -3 -100 -15 -100 -12 0 -15 18 -15 100 l0 100 -125
0 -125 0 0 -100 c0 -60 -4 -100 -10 -100 -6 0 -10 40 -10 100 l0 100 -50 0
-50 0 -2 -557 c-3 -550 -3 -558 -23 -558 -20 0 -20 8 -23 583 l-2 582 75 0 75
0 0 130 0 130 -25 0 c-23 0 -25 4 -25 45 l0 45 195 0 195 0 0 -45z m3583
-2222 l58 -58 50 58 c48 54 53 57 97 57 l47 0 -80 -80 -80 -80 80 -80 80 -80
-46 0 c-43 0 -50 4 -99 56 l-53 56 -57 -57 c-52 -51 -60 -56 -95 -53 l-38 3
73 78 72 77 -68 73 c-37 39 -71 73 -75 75 -4 2 -15 -11 -24 -27 l-16 -31 -119
0 -120 0 0 -25 0 -25 120 0 120 0 -17 -35 -17 -35 -103 0 -103 0 0 -30 0 -30
130 0 130 0 0 -35 0 -35 -165 0 -165 0 0 160 0 160 212 0 212 0 59 -57z m597
52 c0 -4 -7 -19 -15 -35 -14 -28 -20 -30 -70 -30 l-55 0 0 -125 0 -125 -30 0
-30 0 0 125 0 125 -70 0 -70 0 0 35 0 35 170 0 c94 0 170 -2 170 -5z m341 -24
c29 -36 26 -105 -7 -138 l-27 -27 32 -57 c17 -31 31 -59 31 -63 0 -3 -15 -6
-32 -6 -30 0 -36 6 -68 65 l-35 65 -47 0 c-42 0 -49 3 -63 30 -8 16 -15 31
-15 35 0 3 43 5 96 5 93 0 95 1 92 23 -3 21 -8 22 -100 25 l-98 3 0 -130 0
-131 -35 17 -35 17 0 149 0 149 146 -4 c139 -3 147 -4 165 -27z m338 18 c17
-6 36 -19 41 -29 6 -10 10 -66 10 -124 0 -92 -3 -109 -19 -125 -26 -26 -75
-34 -177 -29 -122 6 -129 15 -129 157 0 151 6 157 161 160 45 0 95 -4 113 -10z
m402 -18 c25 -31 25 -101 0 -132 -18 -22 -28 -24 -130 -27 l-111 -4 0 -69 0
-69 -35 17 -35 17 0 149 0 149 146 -4 c139 -3 147 -4 165 -27z m171 -28 l58
-57 51 57 c48 54 53 57 97 57 l46 0 -82 -84 -82 -84 0 -91 0 -92 -30 16 c-29
15 -30 18 -30 88 l0 73 -51 49 c-28 28 -64 67 -81 88 l-30 37 38 0 c33 0 46
-8 96 -57z m-4349 -230 c-337 -2 -889 -2 -1225 0 -337 1 -62 2 612 2 674 0
949 -1 613 -2z m7590 0 c-337 -2 -889 -2 -1225 0 -337 1 -62 2 612 2 674 0
949 -1 613 -2z m-4143 -318 l0 -165 -35 0 -35 0 0 148 0 147 28 17 c15 9 30
17 35 17 4 1 7 -73 7 -164z m-499 126 c25 -31 25 -101 0 -132 -18 -22 -28 -24
-130 -27 l-111 -4 0 -29 0 -29 120 0 119 0 16 -30 c8 -16 15 -31 15 -35 0 -3
-77 -5 -171 -5 l-172 0 5 76 c7 110 17 118 159 122 106 4 110 5 107 26 -3 20
-9 21 -125 24 l-123 3 -15 29 c-8 16 -15 32 -15 35 0 4 68 5 151 3 144 -3 152
-4 170 -27z m129 -31 l0 -60 43 0 c39 0 48 5 102 60 55 56 63 60 104 60 l46 0
-78 -78 -77 -77 76 -83 76 -82 -44 0 c-42 0 -48 4 -102 65 -54 62 -60 65 -102
65 l-44 0 0 -53 c0 -56 2 -54 -62 -85 -5 -2 -8 71 -8 162 l0 166 35 0 35 0 0
-60z m689 49 c17 -6 36 -19 41 -29 6 -10 10 -64 10 -120 0 -56 -4 -110 -10
-120 -5 -10 -24 -23 -41 -29 -32 -11 -269 -16 -269 -6 0 4 7 19 15 35 l15 29
113 3 112 3 3 28 3 27 -94 0 c-122 0 -154 11 -166 57 -18 63 4 114 54 126 39
9 183 7 214 -4z"/>
<path d="M5162 8745 c-88 -38 -67 -166 30 -181 l38 -7 0 -289 c0 -238 3 -296
15 -322 16 -33 61 -66 89 -66 13 0 16 -12 16 -59 0 -72 6 -91 31 -91 17 0 19
8 19 75 0 72 1 75 24 75 13 0 36 10 51 22 52 40 55 63 55 371 l0 284 39 7 c49
7 81 45 81 93 0 90 -35 103 -272 103 -136 -1 -191 -4 -216 -15z m298 -280 c0
-12 -16 -15 -80 -15 -64 0 -80 3 -80 15 0 12 16 15 80 15 64 0 80 -3 80 -15z
m-10 -75 c0 -6 -32 -10 -75 -10 -43 0 -75 4 -75 10 0 6 32 10 75 10 43 0 75
-4 75 -10z m0 -80 c0 -6 -32 -10 -75 -10 -43 0 -75 4 -75 10 0 6 32 10 75 10
43 0 75 -4 75 -10z m0 -80 c0 -6 -32 -10 -75 -10 -43 0 -75 4 -75 10 0 6 32
10 75 10 43 0 75 -4 75 -10z m0 -80 c0 -6 -32 -10 -75 -10 -43 0 -75 4 -75 10
0 6 32 10 75 10 43 0 75 -4 75 -10z m0 -70 c0 -6 -32 -10 -75 -10 -43 0 -75 4
-75 10 0 6 32 10 75 10 43 0 75 -4 75 -10z m0 -80 c0 -6 -32 -10 -75 -10 -43
0 -75 4 -75 10 0 6 32 10 75 10 43 0 75 -4 75 -10z"/>
<path d="M3800 6771 l0 -119 -170 -501 c-93 -275 -170 -505 -170 -511 0 -7
156 -10 465 -10 256 0 465 4 465 8 0 5 -76 235 -170 511 l-170 503 0 119 0
119 -125 0 -125 0 0 -119z"/>
<path d="M7153 5920 c-88 -53 -80 -187 12 -226 33 -14 35 -17 35 -64 l0 -49
122 -3 c108 -3 123 -5 126 -20 3 -16 -8 -18 -122 -18 l-126 0 0 -60 0 -59 122
-3 c108 -3 123 -5 126 -20 3 -16 -8 -18 -122 -18 l-126 0 0 -60 0 -60 126 0
c114 0 125 -2 122 -17 -3 -16 -18 -18 -126 -21 l-122 -3 0 -53 0 -52 -67 -28
c-241 -98 -416 -307 -467 -558 -87 -422 182 -828 604 -914 242 -49 508 30 686
203 359 350 295 943 -130 1207 -39 25 -97 55 -128 67 l-58 22 0 283 0 284 34
14 c92 39 100 173 13 226 -29 18 -52 20 -267 20 -215 0 -238 -2 -267 -20z"/>
<path d="M8725 8031 c-22 -10 -55 -33 -73 -52 -62 -64 -63 -75 -60 -690 l3
-554 28 -48 c42 -71 94 -101 184 -106 94 -4 150 16 197 70 58 68 58 76 59 671
1 542 1 543 -21 593 -30 65 -47 83 -107 111 -63 30 -152 32 -210 5z"/>
<path d="M3801 7840 c-19 -11 -9 -45 14 -45 13 0 21 8 23 21 3 23 -17 37 -37
24z"/>
<path d="M4113 7628 c-45 -21 -47 -94 -4 -117 30 -16 55 -13 79 9 54 50 -9
140 -75 108z"/>
<path d="M3708 7424 c-73 -39 -82 -154 -17 -208 59 -50 145 -39 191 25 40 53
17 154 -42 184 -37 19 -97 19 -132 -1z"/>
<path d="M1841 5816 c-7 -8 -11 -27 -9 -43 2 -23 8 -29 35 -31 27 -3 35 1 45
22 9 22 8 29 -7 46 -21 24 -48 26 -64 6z"/>
<path d="M5230 5276 l0 -164 -244 -718 c-135 -395 -242 -722 -240 -726 7 -10
1301 -11 1307 0 2 4 -105 329 -239 722 l-243 715 0 168 -1 167 -170 0 -170 0
0 -164z"/>
<path d="M2750 5430 c-28 -28 -25 -64 7 -89 60 -48 133 30 79 84 -30 30 -59
32 -86 5z"/>
<path d="M1634 5315 c-4 -9 -2 -21 4 -27 16 -16 47 -5 47 17 0 26 -42 34 -51
10z"/>
<path d="M9200 4811 l0 -119 -169 -499 c-93 -274 -172 -506 -176 -515 -7 -17
19 -18 464 -18 259 0 471 2 471 4 0 3 -75 227 -167 498 l-168 493 -5 135 -5
135 -122 3 -123 3 0 -120z"/>
<path d="M920 4945 c0 -20 5 -25 25 -25 l25 0 0 -140 0 -140 125 0 125 0 0
140 0 140 25 0 c20 0 25 5 25 25 l0 25 -175 0 -175 0 0 -25z"/>
<path d="M1670 4950 c0 -15 7 -20 25 -20 l25 0 0 -145 0 -145 140 0 140 0 0
145 c0 138 1 145 20 145 13 0 20 7 20 20 0 19 -7 20 -185 20 -178 0 -185 -1
-185 -20z"/>
<path d="M2500 4945 c0 -20 5 -25 25 -25 l25 0 0 -140 0 -140 125 0 125 0 0
140 0 140 25 0 c20 0 25 5 25 25 l0 25 -175 0 -175 0 0 -25z"/>
<path d="M5940 2620 l0 -91 98 3 97 3 0 85 0 85 -97 3 -98 3 0 -91z"/>
<path d="M6310 2685 l0 -25 101 0 c98 0 100 0 97 23 -3 21 -8 22 -100 25 l-98
3 0 -26z"/>
<path d="M5930 2235 l0 -25 101 0 c98 0 100 0 97 23 -3 21 -8 22 -100 25 l-98
3 0 -26z"/>
</g>
</svg>
