<?xml version="1.0" encoding="utf-8"?>
<!-- Generator: Adobe Illustrator 21.1.0, SVG Export Plug-In . SVG Version: 6.00 Build 0)  -->
<svg version="1.1" xmlns="http://www.w3.org/2000/svg" xmlns:xlink="http://www.w3.org/1999/xlink" x="0px" y="0px"
	 viewBox="0 0 595.3 841.9" style="enable-background:new 0 0 595.3 841.9;" xml:space="preserve">
<style type="text/css">
	.st0{fill:#FEFEFE;}
	.st1{fill:#474747;}
	.st2{fill:#2EAAE0;}
	.st3{fill:#D807EF;}
	.st4{fill:#9DEF07;}
	.st5{display:none;fill:#2DA9DF;}
	.st6{fill:#1EAB9B;}
	.st7{fill:#025178;}
	.st8{fill:#6F8CA6;}
</style>
<g id="Layer_1">
	<path class="st0" d="M423.4,444.4c-27.8,8.3-42.2-13.1-42.2-13.1l-40.7,1.9l-33.4-2.4l-3.4,2.5l-57.5,0.1l-52.8-2.5
		c0,0-12.5-2.4-21.9-8.7c-1.2,0.4-2.2,0.9-2.2,2.4c-0.8-12.9,0.5-25.6,3.4-38.2c9.4-40.7,39.8-78,84.7-93.3
		c11.1-3.8,22.4-5.9,34.1-6.6c5.3-0.3,10.6-0.2,15.8,0.1c1.1,0.1,2,0.3,3,0.7c19.8,7.5,39.6,15,59.3,22.5c1.1,0.4,2.2,1,3.2,1.7
		c26.1,19.3,42.7,45.1,50.1,77.1c3,13,3.9,26.3,2.9,39.7c-0.4,5-1.1,9.9-2,14.8C423.8,443.7,423.6,444,423.4,444.4z"/>
	<path id="grhndl" class="st1" d="M292.5,284.3c-1.4,5.1,42.9-119.2,45.7-121.3c2.8-2.1,3.3-5.6,10.1-6c6.8-0.4,69,25,73.7,27.2
		c4.6,2.2,2.5,12.5,2.5,12.5s-45.8,124.7-42,119.5C386.2,310.9,293.9,279.2,292.5,284.3z"/>
	<circle class="st2" cx="241.8" cy="452.7" r="29.5"/>
	<circle class="st3" cx="263" cy="422.2" r="16.8"/>
	<circle class="st4" cx="323.4" cy="457" r="25.1"/>
	<path id="filler" class="st5" d="M419,441.8c-0.3,2.8-1.1,5.6-1.9,8.3c-6.5,23.3-18.3,43.2-35.9,59.5c-13.8,12.8-29.7,22-47.6,27.5
		c-8.3,2.6-16.7,4.5-25.3,5.2c-7.9,0.7-15.7,0.6-23.6-0.3c-14.8-1.6-28.9-5.9-42.1-12.8c-28.7-14.8-48.7-37.8-60.5-68.3
		c-3.8-9.9-6.4-20.1-7.5-30.7c-0.3-2.5-0.5-5-0.7-7.5c0-1.5,0.9-1.9,2.1-2.3c7-2.4,14.1-4.8,21.1-7.3c17-5.9,34-11.7,50.9-17.6
		c18.5-6.4,37-12.9,55.5-19.3c1.2-0.4,2.1-0.3,3.2,0.3c10.7,6.3,57,33,71.5,41.6C392.8,426.7,405.4,433.9,419,441.8z"/>
	<path class="st6" d="M9.7,410.8c0.7,0,1.3,0.1,2,0.1c11.7,0,23.3,0,35,0c0.4,0,0.7,0,1.1,0c1.1,0.1,1.4-0.3,1.4-1.4
		c0-2.6,0.2-5.2,0.3-7.7c0.5-16,2.7-31.9,6.4-47.5c5.3-22.7,13.7-44.2,25.2-64.5c7.9-14.1,17.2-27.2,27.6-39.5
		c14.5-17,31-31.8,49.5-44.2c16.2-10.9,33.4-19.7,51.7-26.5c12.5-4.7,25.3-8.3,38.5-10.9c1.8-0.4,1.8-0.4,1.9,1.5
		c0.5,6.9,0.3,13.7,0.4,20.6c0.1,5.5,0.3,10.9,0.4,16.4c0,2.1,0,2.1-2.1,2.6c-22.3,5.2-43.3,13.8-62.6,26.1
		c-37.9,24.2-65.6,57-82.6,98.7c-6.3,15.5-10.5,31.6-12.8,48.2c-1.7,11.9-2.4,23.9-2,36c1,27.4,6.9,53.6,18.1,78.6
		c10,22.5,23.6,42.5,40.9,60.1c24.3,24.7,52.9,42.5,85.9,53.1c12.7,4.1,25.8,6.9,39.1,8.4c9.9,1.1,19.9,1.7,29.8,1.3
		c19.8-0.7,39.1-3.9,58-10c27.6-8.9,52.2-22.9,73.9-42c17.7-15.6,32-33.9,43.5-54.3c4-7,7.5-14.2,10.6-21.6c0.5-1.2,1-1.9,2.5-1.9
		c13.7-0.2,27.4-0.4,41.2-0.4c-2.3,7.4-5.1,14.6-8.3,21.7c-6,13.7-13.2,26.8-21.7,39.2c-7.4,10.9-15.6,21.2-24.5,30.8
		c-8.3,8.8-17.2,17-26.7,24.6c-12.1,9.7-25.2,18-38.8,25.5c-6.5,3.6-13.3,6.6-20.2,9.5c-15,6.2-30.5,10.9-46.5,14.1
		c-8,1.6-15.9,2.8-24,3.6c-5.4,0.5-10.7,1-16.1,1.1c-12.8,0.4-25.5,0-38.2-1.6c-8.5-1-16.9-2.4-25.2-4.3
		c-22.3-5-43.5-12.9-63.5-23.9c-16.4-9-31.7-19.7-45.7-32.1c-16.5-14.6-30.9-31-43-49.5c-6.7-10.3-12.7-20.9-17.9-32.1
		c-5.3-11.5-9.8-23.4-13.3-35.6c-4.6-16-7.6-32.3-9-48.8c-0.5-6.4-0.7-12.8-0.9-19.2c0-1.8,0-1.9-1.8-1.9c-4.5,0-9,0-13.5,0
		c-8,0-16.1,0-24.1,0.1C9.7,411.1,9.7,410.9,9.7,410.8z"/>
	<path class="st7" d="M9.7,411.2c8,0,16.1,0,24.1-0.1c4.5,0,9,0,13.5,0c1.8,0,1.8,0,1.8,1.9c0.2,6.4,0.4,12.8,0.9,19.2
		c1.4,16.6,4.4,32.8,9,48.8c3.5,12.2,8,24.1,13.3,35.6c5.1,11.1,11.1,21.8,17.9,32.1c12.1,18.4,26.5,34.8,43,49.5
		c14,12.4,29.3,23.1,45.7,32.1c20,11,41.3,18.8,63.5,23.9c8.3,1.9,16.8,3.2,25.2,4.3c12.7,1.6,25.4,1.9,38.2,1.6
		c5.4-0.1,10.7-0.6,16.1-1.1c8.1-0.8,16.1-2,24-3.6c16-3.1,31.4-7.9,46.5-14.1c6.9-2.8,13.7-5.8,20.2-9.5
		c13.5-7.6,26.6-15.8,38.8-25.5c9.5-7.6,18.4-15.7,26.7-24.6c9-9.6,17.1-19.9,24.5-30.8c8.5-12.4,15.7-25.5,21.7-39.2
		c3.1-7.1,5.9-14.3,8.3-21.7c3.5-10,6-20.3,8.1-30.7c1.9-9.7,3.2-19.5,3.9-29.4c0.4-5.5,0.7-11,0.6-16.6c0-1.8,0-1.9,1.8-1.9
		c12.3,0,24.5,0,36.8,0c0.6,0,1.2,0,1.7,0.2c0,1.9,0,3.8,0,5.8c-0.7,3.1-0.5,6.2-0.4,9.3c0,8.7-1.1,17.4-2.4,26
		c-2.7,18.8-7.2,37.2-13.6,55.1c-14,39.1-35.4,73.7-64.3,103.5c-36.1,37.3-79.3,63.1-129.2,77.3c-12.3,3.5-24.7,6.1-37.4,7.8
		c-10.8,1.5-21.7,2.4-32.6,2.7c-10,0.4-20.1,0.1-30.1-0.7c-36.3-2.8-70.9-12.1-103.7-28.1c-33.4-16.3-62.5-38.1-87.4-65.7
		c-31.8-35.2-53.7-75.7-65.5-121.7c-3.2-12.2-5.4-24.6-7-37.1c-0.7-5.9-1.3-11.7-1.5-17.6c-0.1-1.8-0.1-3.5-0.8-5.2
		C9.7,419.2,9.7,415.2,9.7,411.2z"/>
	<path class="st8" d="M585,426.7c-0.1-3.1-0.3-6.2,0.4-9.3c0,3.1,0,6.2,0,9.3C585.3,426.7,585.2,426.7,585,426.7z"/>
	<path id="gear" class="st1" d="M327.2,250.4c1.6,0,3.2,0,4.9,0c2.4,0.7,4.9,1.4,7.3,2.2c5.9,1.7,11.8,3.5,17.8,5.1
		c5.8,1.6,10.3,4.8,12.6,10.5c1.2,3,1.7,6.1,0.8,9.3c-2,7-4,13.9-6,20.8c-0.2,0.6-0.1,0.9,0.4,1.2c4.1,2.5,8.4,4.9,12.4,7.6
		c3.2,2.2,6.3,4.6,9.3,7.1c2.5,2,4.7,4.3,7.1,6.4c0.3,0.2,1,0.4,1.3,0.2c3.9-2.6,7.7-5.2,11.6-7.8c2.2-1.5,4.4-3,6.6-4.4
		c3-1.9,6.3-2.4,9.8-2.2c2.8,0.2,5.3,1.1,7.6,2.6c2.6,1.7,4.4,4.2,6.2,6.7c3.3,4.9,6.7,9.9,10,14.8c1.7,2.5,3.6,4.9,4.6,7.8
		c0.4,1.1,0.7,2.2,1.3,3.2c3.1,4.7,3.9,9.8,2.1,15.1c-0.9,2.7-2.4,5.1-4.8,6.8c-2,1.4-4,2.8-6.1,4.1c-4.3,2.8-8.6,5.5-13,8.2
		c-0.7,0.4-0.8,0.8-0.5,1.6c1.5,4.6,3,9.3,4.3,14c1.1,3.9,1.8,7.9,2.5,11.9c0.5,2.8,0.6,5.6,1,8.4c0.1,0.5,0.4,1.3,0.8,1.5
		c0.7,0.3,1.5,0.2,2.3,0.3c2,0.2,4.1,0.5,6.1,0.7c2.7,0.3,5.5,0.7,8.2,1.1c1.8,0.2,3.7,0.2,5.4,0.6c2.6,0.5,4.9,1.6,7,3.3
		c3.6,3,5.5,6.9,5.8,11.4c0.4,4.6-0.8,9-1.4,13.5c-0.6,5.1-1.5,10.1-2.1,15.1c-0.6,4.2-2.3,7.8-5.5,10.6c-4.3,3.9-9.3,4.8-14.9,4
		c-2.1-0.3-4.3-0.6-6.5-0.8c-2-0.3-4.1-0.5-6.1-0.8c-2-0.3-4-0.5-6-0.7c-0.3,0-0.9,0.3-1.1,0.6c-1.4,3.4-2.5,6.9-4.1,10.2
		c-2.2,4.6-4.6,9-7.1,13.5c-1.2,2.2-2.6,4.3-4,6.4c0.2,0.2,0.4,0.5,0.6,0.7c3.8,4,7.6,7.9,11.3,11.9c2.9,3.1,4.8,6.8,4.9,11.1
		c0,1.2,0,2.3,0,3.5c0,1.6,0.1,3.1,0,4.7c-0.3,4-2.2,7.2-5,9.9c-5.7,5.4-11.5,10.6-17.2,16c-3.8,3.7-8.1,5.8-13.5,5.6
		c-4.2-0.1-7.8-1.6-10.7-4.6c-3.3-3.3-6.4-6.7-9.5-10.1c-1.8-2-3.5-4-5.4-5.9c-0.2-0.3-1-0.4-1.3-0.2c-3.8,1.9-7.6,4-11.4,5.8
		c-3.7,1.7-7.5,3.3-11.4,4.7c-3.4,1.3-6.9,2.3-10.5,3.4c0.1,1.1,0.2,2.3,0.3,3.4c0.2,3.9,0.4,7.7,0.7,11.6c0.1,1.4,0.4,2.7,0.4,4.1
		c0.1,1.4,0.2,2.9-0.1,4.2c-0.9,4.3-3.1,8.1-6.3,11.2c-2.5,2.4-5.6,3.9-9.1,4.3c-4.1,0.4-8.2,0.5-12.3,0.7c-3.7,0.2-7.3,0.3-11,0.5
		c-0.2,0-0.3,0.1-0.4,0.2c-1.8,0-3.7,0-5.5,0c-0.2-0.1-0.4-0.2-0.6-0.2c-3.5-0.4-6.4-1.8-9-4.1c-3.7-3.3-5.6-7.6-5.9-12.6
		c-0.3-3.7-0.3-7.5-0.5-11.2c-0.1-2.9-0.1-5.8-0.2-8.7c0-0.3,0-0.6-0.1-0.8c-6.3-0.3-22.5-5.4-35.5-11.1c-0.8,1.2-1.7,2.3-2.5,3.5
		c-2.8,3.9-5.6,7.8-8.5,11.6c-1.4,1.8-2.9,3.7-4.7,5c-3.3,2.5-7.1,3.7-11.4,3.4c-2.6-0.2-5-0.7-7.2-2c-2.7-1.7-5.3-3.6-7.9-5.5
		c-4-2.9-7.9-5.9-11.9-8.8c-2.6-1.9-5.2-3.8-7-6.4c-2.5-3.6-3.6-7.5-2.9-11.9c0.4-2.4,1.1-4.6,2.5-6.6c1.7-2.5,3.6-4.8,5.5-7.3
		c2.7-3.5,5.4-7,8-10.5c0.2-0.2,0.1-0.9-0.1-1.1c-2.2-2.8-4.5-5.6-6.7-8.4c-3.8-4.9-7.1-10.1-10-15.6c-1-1.9-2-3.8-3-5.7
		c-0.4,0.1-0.8,0.3-1.2,0.4c-5.9,1.4-11.8,2.7-17.7,4.2c-3.4,0.8-6.8,1.4-10.2,0.4c-6.1-1.8-10.2-5.8-11.8-11.9
		c-1.7-6.3-3.1-12.7-4.7-19.1c-0.5-2.2-1.2-4.4-1.8-6.6c0-2.1,0-4.3,0-6.4c0.3-1.1,0.6-2.3,0.9-3.4c1.8-5.7,5.4-9.7,11.1-11.4
		c5.1-1.5,10.4-2.6,15.5-3.8c2-0.5,4-0.9,6-1.4c-0.4-12.3,1.4-24.2,4.2-35.8c-0.8-0.4-1.4-0.7-1.9-0.9c-4.7-2.3-9.3-4.7-14-7
		c-3.4-1.6-6.7-3.2-9.1-6.3c-2.1-2.7-3.2-5.8-3.5-9.2c-0.3-3.7,0.7-7,2.4-10.3c3.3-6.6,6.7-13.2,9.9-19.8c1.2-2.5,2.4-5,4.5-6.9
		c1.7-1.6,3.7-2.8,5.9-3.4c1.9-0.5,3.9-0.7,5.8-1c2.6-0.4,5.1-0.1,7.5,1c2.6,1.3,5.2,2.7,7.8,4c3.7,1.9,7.4,3.8,11.1,5.7
		c0.5-0.7,1-1.4,1.5-2c2-2.2,3.9-4.5,6-6.7c3.4-3.4,6.8-6.7,10.3-9.9c2.5-2.2,5.1-4.2,7.8-6.2c0.9-0.7,0.8-1.2,0.5-2.1
		c-2.3-5.4-4.6-10.8-7-16.2c-1.8-4-3-8.2-1.9-12.6c1-4.1,2.8-7.7,6.5-10c2-1.2,4.2-2.2,6.3-3.2c3-1.4,5.9-2.7,8.9-4
		c3.6-1.6,7.3-3.1,10.9-4.8c2.9-1.3,5.8-1.5,8.9-1.2c3.1,0.3,5.7,1.8,8.3,3.2c3.5,1.9,6.2,4.6,7.8,8.3c1.6,3.8,3.2,7.5,4.8,11.3
		c0.8,2,1.7,3.9,2.4,5.7c5.1-0.6,9.9-1.2,14.8-1.8c1.3-0.1,2.5-0.2,3.8-0.2c2.6-0.1,5.2-0.4,7.8-0.4c2.9,0,5.7,0.2,8.6,0.4
		c0.7,0,1.1-0.1,1.3-0.9c1.8-6.6,3.7-13.2,5.7-19.8c1.8-5.9,5.9-9.4,11.8-10.9C326.3,250.8,326.8,250.6,327.2,250.4z M298.1,537.7
		c5.7-0.5,11.2-0.7,16.7-1.5c13-1.7,25.4-5.6,37.1-11.7c26.2-13.7,45.5-33.7,55.9-61.7c5.4-14.4,7.6-29.3,6.6-44.7
		c-0.3-5.7-1.3-11.2-2.6-16.7c-2.9-11.9-7.4-23.3-13.2-34.1c-5.3-9.9-11.6-19.1-19.2-27.4c-4.7-5.2-9.9-9.8-15.7-13.7
		c-10.5-7.2-21.8-12.7-33.9-16.6c-9.4-3-19.1-4.7-29-4.9c-4-0.1-8-0.2-11.9,0.2c-5.8,0.6-11.6,1.2-17.3,2.4
		c-24.7,5.4-45.7,17.5-63,36.1c-7.6,8.2-13.6,17.3-18,27.5c-2,4.5-3.6,9.2-5.1,13.9c-2.9,9.5-4.6,19.2-5,29.2
		c-0.2,4.8-0.1,9.7,0.3,14.5c0.5,5.7,1.2,11.3,2.7,16.8c1,3.7,1.9,7.4,3.1,11c1.4,4.1,3.1,8.2,5,12.1c1.7,3.6,3.5,7.2,5.5,10.6
		c2.1,3.5,4.4,6.8,6.8,10.1c2.5,3.4,5.1,6.7,7.9,9.8c3.3,3.5,6.9,6.8,10.5,10c2.8,2.4,5.7,4.7,8.7,6.8c4.4,3.2,9.1,6,14,8.5
		c4.4,2.2,8.9,4.3,13.6,5.9c7.6,2.7,15.3,4.7,23.2,5.7C287.3,536.8,292.8,537.2,298.1,537.7z"/>
</g>
<g id="Layer_2">
	<path d="M419.7,419.8c-10.6-1.2-20.7-2.7-30.9-3.5c-24.6-1.9-48.3-6.9-69.4-21.7c-5.7-4-11.4-7.8-17.2-11.6
		c-37.8-24.7-75.8-22.8-114.3-1.8c-7,3.8-9.3,9.2-10,16.9c-3,30.3,2.2,58.8,16.5,85.1c4.6,8.3,9.3,17.3,16,23.3
		c9.8,8.9,21.1,16.2,32.5,22.7c45.4,26.1,91.3,21.1,128.7-9.2c24.7-20,37.6-48.1,44.4-79.8C417.5,433.9,418.4,427.3,419.7,419.8z"/>
</g>
</svg>
